<svg xmlns="http://www.w3.org/2000/svg" version="1.1" xmlns:xlink="http://www.w3.org/1999/xlink" xmlns:svgjs="http://svgjs.dev/svgjs" width="2000" height="1871" viewBox="0 0 2000 1871"><g transform="matrix(1,0,0,1,0.48513444077411805,0.7588886743488956)"><svg viewBox="0 0 264 247" data-background-color="#ffffff" preserveAspectRatio="xMidYMid meet" height="1871" width="2000" xmlns="http://www.w3.org/2000/svg" xmlns:xlink="http://www.w3.org/1999/xlink"><g id="tight-bounds" transform="matrix(1,0,0,1,-0.06403774618217994,-0.09997365579206985)"><svg viewBox="0 0 264.12807549236436 247.2" height="247.2" width="264.12807549236436"><g><svg viewBox="0 0 264.12807549236436 247.2" height="247.2" width="264.12807549236436"><g><svg viewBox="0 0 264.12807549236436 247.2" height="247.2" width="264.12807549236436"><g id="textblocktransform"><svg viewBox="0 0 264.12807549236436 247.2" height="247.2" width="264.12807549236436" id="textblock"><g><svg viewBox="0 0 264.12807549236436 247.2" height="247.2" width="264.12807549236436"><path d="M263.51 53.02C262.268 27.36 258.729 20.227 258.729 20.227 247.864-6.202 234.304-0.506 222.123 3.292 200.616 3.446 179.197 9.091 157.74 12.119 112.702 12.581 67.28 4.986 22.466 23.717 18.257 29.464-4.367 24.846 0.749 56.304 2.09 69.39 6.982 83.913 6.833 95.922 7.504 98.026 8.435 93.202 8.832 96.23 10.223 104.39 12.495 100.541 14.358 105.365 11.763 118.246 13.625 128.971 15.401 140.21 12.272 143.135 8.261 141.749 6.461 151.449 6.274 158.479 5.269 157.145 4.163 156.837 3.356 156.632 1.73 157.402 2.003 159.608 2.934 167.152-1.064 171.514 1.444 178.904-0.282 186.91 2.636 193.838 2.239 202.511 2.189 204.255 2.462 205.744 2.897 206.154 4.822 208.361 2.015 212.672 2.313 217.342 22.057 249.262 43.476 227.195 63.704 241.872 68.957 231.608 65.008 245.516 67.106 243.36 68.745 240.846 69.938 251.263 71.788 245.362 72.073 243.668 71.639 239.665 72.657 240.435 73.191 240.846 73.663 240.743 73.737 238.382 73.849 234.841 72.868 237.048 72.607 235.201 75.426 225.861 74.731 248.081 77.375 247.158 77.251 244.438 76.481 240.538 78.058 241.051 79.623 237.151 79.673 233.918 81.063 242.693 81.113 244.592 81.361 245.926 81.759 246.85 86.105 237.305 90.426 250.237 94.983 245.926 97.777 241.205 100.459 248.492 103.29 246.696 104.284 245.259 105.289 242.693 106.246 247.004 117.955 247.928 130.434 244.079 141.535 247.158 171.2 241.41 202.901 249.518 234.18 241.923 241.556 238.998 249.217 234.841 256.407 231.506 256.407 231.506 262.231 222.371 262.231 181.316S263.472 145.393 263.659 112.703C263.845 80.013 264.714 78.679 263.472 53.02Z" opacity="1" fill="#ff3131" data-fill-palette-color="tertiary"></path><g transform="matrix(1,0,0,1,55.76831999999999,26.230666666666668)"><svg width="152.59143549236438" viewBox="1.85 -31.1 24.799999999999997 31.650000000000002" height="194.73866666666666" data-palette-color="#ffffff"><path d="M1.85-0.35L1.85-0.35 2.25-9.8 6.1-9.8 7.3-4.9Q8.25-4.5 9.45-4.17 10.65-3.85 11.83-3.58 13-3.3 13.9-3.15 14.8-3 15.15-3L15.15-3Q15.65-3 16.43-3.33 17.2-3.65 18.03-4.15 18.85-4.65 19.45-5.2 20.05-5.75 20.1-6.2L20.1-6.2Q20.2-6.65 20.25-7.3 20.3-7.95 20.3-8.68 20.3-9.4 20.2-9.95 20.1-10.5 19.95-10.65L19.95-10.65Q19.55-11.2 18.15-11.98 16.75-12.75 14.9-13.7 13.05-14.65 11.25-15.6 9.45-16.55 8.2-17.38 6.95-18.2 6.75-18.75L6.75-18.75Q6.6-19.35 6.48-20.3 6.35-21.25 6.3-22.35 6.25-23.45 6.2-24.4L6.2-24.4Q5.3-23.7 4.9-23.18 4.5-22.65 4.4-22.15 4.3-21.65 4.3-20.8L4.3-20.8Q4.3-19.55 4.38-18.73 4.45-17.9 4.85-17.3L4.85-17.3Q5.3-16.7 6.1-16.15 6.9-15.6 8.25-14.8L8.25-14.8Q9.65-14.05 11.23-13.23 12.8-12.4 14.25-11.6 15.7-10.8 16.75-10.15 17.8-9.5 18-9.1L18-9.1Q18.3-8.75 18.25-8 18.2-7.25 18.1-6.75L18.1-6.75Q17.85-6.3 17.13-5.83 16.4-5.35 15.65-5L15.65-5Q15.75-5.5 15.78-6.1 15.8-6.7 15.78-7.18 15.75-7.65 15.6-7.85L15.6-7.85Q15.2-8.25 13.98-9 12.75-9.75 11.05-10.63 9.35-11.5 7.6-12.45 5.85-13.4 4.55-14.3 3.25-15.2 2.75-15.9L2.75-15.9Q2.5-16.4 2.35-17.32 2.2-18.25 2.13-19.33 2.05-20.4 2.1-21.4 2.15-22.4 2.3-23.05L2.3-23.05Q2.55-23.9 3.55-24.98 4.55-26.05 5.93-27.13 7.3-28.2 8.72-29.13 10.15-30.05 11.43-30.58 12.7-31.1 13.45-31.1L13.45-31.1Q13.8-31.1 14.9-31.05 16-31 17.5-30.85 19-30.7 20.6-30.55 22.2-30.4 23.58-30.2 24.95-30 25.85-29.85L25.85-29.85 25.45-20.95 21.8-20.95 20.65-26.35Q19.95-26.7 18.75-27.05 17.55-27.4 16.4-27.65 15.25-27.9 14.6-27.9L14.6-27.9Q14.3-27.9 14.08-27.85 13.85-27.8 13.7-27.73 13.55-27.65 13.4-27.5L13.4-27.5Q13.15-27.2 13.05-26.55 12.95-25.9 12.98-25.15 13-24.4 13.13-23.75 13.25-23.1 13.45-22.8L13.45-22.8Q13.65-22.45 14.83-21.8 16-21.15 17.6-20.38 19.2-19.6 20.93-18.73 22.65-17.85 24.1-16.95 25.55-16.05 26.3-15.2L26.3-15.2Q26.45-14.7 26.53-13.75 26.6-12.8 26.63-11.6 26.65-10.4 26.65-9.15 26.65-7.9 26.55-6.8L26.55-6.8Q26.05-5.5 24.65-4.2 23.25-2.9 21.48-1.83 19.7-0.75 18.13-0.1 16.55 0.55 15.7 0.55L15.7 0.55Q14.65 0.55 12.83 0.48 11 0.4 8.95 0.25 6.9 0.1 5-0.05 3.1-0.2 1.85-0.35Z" opacity="1" transform="matrix(1,0,0,1,0,0)" fill="#ffffff" class="undefined-text-0" data-fill-palette-color="quaternary" id="text-0"></path></svg></g></svg></g></svg></g></svg></g><g></g></svg></g><defs></defs></svg><rect width="264.12807549236436" height="247.2" fill="none" stroke="none" visibility="hidden"></rect></g></svg></g></svg>