{
  "accessors": [
    {
      "bufferView": 2,
      "componentType": 5126,
      "count": 1440,
      "max": [
        4.581175327301025,
        5.429605484008789,
        0.7756059765815735
      ],
      "min": [
        -4.581175327301025,
        -5.429605484008789,
        -0.7756059765815735
      ],
      "type": "VEC3"
    },
    {
      "bufferView": 2,
      "byteOffset": 17280,
      "componentType": 5126,
      "count": 1440,
      "max": [
        1.0,
        1.0,
        1.0
      ],
      "min": [
        -1.0,
        -1.0,
        -1.0
      ],
      "type": "VEC3"
    },
    {
      "bufferView": 1,
      "componentType": 5126,
      "count": 1440,
      "max": [
        0.9921414256095886,
        0.9918546676635742
      ],
      "min": [
        0.007858581840991974,
        0.008145332336425781
      ],
      "type": "VEC2"
    },
    {
      "bufferView": 0,
      "componentType": 5125,
      "count": 3252,
      "type": "SCALAR"
    },
    {
      "bufferView": 2,
      "byteOffset": 34560,
      "componentType": 5126,
      "count": 180,
      "max": [
        4.719767093658447,
        3.1897125244140625,
        1.3967926502227783
      ],
      "min": [
        -4.719767093658447,
        -3.1897125244140625,
        -0.742060124874115
      ],
      "type": "VEC3"
    },
    {
      "bufferView": 2,
      "byteOffset": 36720,
      "componentType": 5126,
      "count": 180,
      "max": [
        0.9999601244926453,
        0.9999999403953552,
        1.0
      ],
      "min": [
        -0.99996018409729,
        -0.9999999403953552,
        -1.0
      ],
      "type": "VEC3"
    },
    {
      "bufferView": 1,
      "byteOffset": 11520,
      "componentType": 5126,
      "count": 180,
      "max": [
        0.9914197325706482,
        0.9914183616638184
      ],
      "min": [
        0.008580249734222889,
        0.00858163833618164
      ],
      "type": "VEC2"
    },
    {
      "bufferView": 0,
      "byteOffset": 13008,
      "componentType": 5125,
      "count": 483,
      "type": "SCALAR"
    },
    {
      "bufferView": 2,
      "byteOffset": 38880,
      "componentType": 5126,
      "count": 315,
      "max": [
        4.849999904632568,
        4.849999904632568,
        1.3946216106414795
      ],
      "min": [
        -4.849999904632568,
        -4.849999904632568,
        -1.3946216106414795
      ],
      "type": "VEC3"
    },
    {
      "bufferView": 2,
      "byteOffset": 42660,
      "componentType": 5126,
      "count": 315,
      "max": [
        0.9999601244926453,
        1.0,
        1.0
      ],
      "min": [
        -0.9999601244926453,
        -1.0,
        -1.0
      ],
      "type": "VEC3"
    },
    {
      "bufferView": 1,
      "byteOffset": 12960,
      "componentType": 5126,
      "count": 315,
      "max": [
        0.9911487102508545,
        0.9915971159934998
      ],
      "min": [
        0.008851286955177784,
        0.00840294361114502
      ],
      "type": "VEC2"
    },
    {
      "bufferView": 0,
      "byteOffset": 14940,
      "componentType": 5125,
      "count": 855,
      "type": "SCALAR"
    }
  ],
  "asset": {
    "extras": {
      "author": "stPixel (https://sketchfab.com/innasparrow)",
      "license": "SKETCHFAB Editorial (https://sketchfab.com/licenses)",
      "source": "https://sketchfab.com/3d-models/macos-mail-icon-1bedc1f0ab7345c4b2a6174602e8ead7",
      "title": "macOS Mail icon"
    },
    "generator": "Sketchfab-12.66.0",
    "version": "2.0"
  },
  "bufferViews": [
    {
      "buffer": 0,
      "byteLength": 18360,
      "name": "floatBufferViews",
      "target": 34963
    },
    {
      "buffer": 0,
      "byteLength": 15480,
      "byteOffset": 18360,
      "byteStride": 8,
      "name": "floatBufferViews",
      "target": 34962
    },
    {
      "buffer": 0,
      "byteLength": 46440,
      "byteOffset": 33840,
      "byteStride": 12,
      "name": "floatBufferViews",
      "target": 34962
    }
  ],
  "buffers": [
    {
      "byteLength": 80280,
      "uri": "scene.bin"
    }
  ],
  "images": [
    {
      "uri": "textures/Mail_3_baseColor.png"
    },
    {
      "uri": "textures/Mail_2_baseColor.png"
    },
    {
      "uri": "textures/Mail_baseColor.png"
    }
  ],
  "materials": [
    {
      "doubleSided": true,
      "name": "Mail_3",
      "pbrMetallicRoughness": {
        "baseColorTexture": {
          "index": 0
        },
        "metallicFactor": 0.652288577178678
      }
    },
    {
      "doubleSided": true,
      "name": "Mail_2",
      "pbrMetallicRoughness": {
        "baseColorTexture": {
          "index": 1
        },
        "metallicFactor": 0.36044026533875684
      }
    },
    {
      "doubleSided": true,
      "name": "Mail",
      "pbrMetallicRoughness": {
        "baseColorTexture": {
          "index": 2
        },
        "metallicFactor": 0.43340234329873717
      }
    }
  ],
  "meshes": [
    {
      "name": "Mail_3_Mail 3_0",
      "primitives": [
        {
          "attributes": {
            "NORMAL": 1,
            "POSITION": 0,
            "TEXCOORD_0": 2
          },
          "indices": 3,
          "material": 0,
          "mode": 4
        }
      ]
    },
    {
      "name": "Mail_2_Mail 2_0",
      "primitives": [
        {
          "attributes": {
            "NORMAL": 5,
            "POSITION": 4,
            "TEXCOORD_0": 6
          },
          "indices": 7,
          "material": 1,
          "mode": 4
        }
      ]
    },
    {
      "name": "Mail_Mail_0",
      "primitives": [
        {
          "attributes": {
            "NORMAL": 9,
            "POSITION": 8,
            "TEXCOORD_0": 10
          },
          "indices": 11,
          "material": 2,
          "mode": 4
        }
      ]
    }
  ],
  "nodes": [
    {
      "children": [
        1
      ],
      "matrix": [
        1.0,
        0.0,
        0.0,
        0.0,
        0.0,
        2.220446049250313e-16,
        -1.0,
        0.0,
        0.0,
        1.0,
        2.220446049250313e-16,
        0.0,
        0.0,
        0.0,
        0.0,
        1.0
      ],
      "name": "Sketchfab_model"
    },
    {
      "children": [
        2
      ],
      "matrix": [
        0.009999999776482582,
        0.0,
        0.0,
        0.0,
        0.0,
        0.0,
        0.009999999776482582,
        0.0,
        0.0,
        -0.009999999776482582,
        0.0,
        0.0,
        0.0,
        0.0,
        0.0,
        1.0
      ],
      "name": "Mail.fbx"
    },
    {
      "children": [
        3,
        5,
        7
      ],
      "name": "RootNode"
    },
    {
      "children": [
        4
      ],
      "matrix": [
        1.0,
        0.0,
        0.0,
        0.0,
        0.0,
        1.0,
        0.0,
        0.0,
        0.0,
        0.0,
        1.0,
        0.0,
        4.42646598815918,
        0.3784531354904175,
        -8.152961730957031,
        1.0
      ],
      "name": "Mail_3"
    },
    {
      "mesh": 0,
      "name": "Mail_3_Mail 3_0"
    },
    {
      "children": [
        6
      ],
      "matrix": [
        1.0,
        0.0,
        0.0,
        0.0,
        0.0,
        1.0,
        0.0,
        0.0,
        0.0,
        0.0,
        1.0,
        0.0,
        9.454512596130371,
        0.5560191869735718,
        -16.582876205444336,
        1.0
      ],
      "name": "Mail_2"
    },
    {
      "mesh": 1,
      "name": "Mail_2_Mail 2_0"
    },
    {
      "children": [
        8
      ],
      "matrix": [
        1.0,
        0.0,
        0.0,
        0.0,
        0.0,
        1.0,
        0.0,
        0.0,
        0.0,
        0.0,
        1.0,
        0.0,
        -0.0032044558320194483,
        0.9429594874382019,
        -0.012213564477860928,
        1.0
      ],
      "name": "Mail"
    },
    {
      "mesh": 2,
      "name": "Mail_Mail_0"
    }
  ],
  "samplers": [
    {
      "magFilter": 9729,
      "minFilter": 9987,
      "wrapS": 10497,
      "wrapT": 10497
    }
  ],
  "scene": 0,
  "scenes": [
    {
      "name": "Sketchfab_Scene",
      "nodes": [
        0
      ]
    }
  ],
  "textures": [
    {
      "sampler": 0,
      "source": 0
    },
    {
      "sampler": 0,
      "source": 1
    },
    {
      "sampler": 0,
      "source": 2
    }
  ]
}
