{
  "accessors": [
    {
      "bufferView": 2,
      "componentType": 5126,
      "count": 315,
      "max": [
        4.849999904632568,
        4.849999904632568,
        1.3946216106414795
      ],
      "min": [
        -4.849999904632568,
        -4.849999904632568,
        -1.3946216106414795
      ],
      "type": "VEC3"
    },
    {
      "bufferView": 2,
      "byteOffset": 3780,
      "componentType": 5126,
      "count": 315,
      "max": [
        0.9999602437019348,
        1.0,
        1.0
      ],
      "min": [
        -0.9999602437019348,
        -1.0,
        -1.0
      ],
      "type": "VEC3"
    },
    {
      "bufferView": 1,
      "componentType": 5126,
      "count": 315,
      "max": [
        0.9911487102508545,
        0.9915971159934998
      ],
      "min": [
        0.008851286955177784,
        0.00840294361114502
      ],
      "type": "VEC2"
    },
    {
      "bufferView": 0,
      "componentType": 5125,
      "count": 855,
      "type": "SCALAR"
    }
  ],
  "asset": {
    "extras": {
      "author": "ssufi05 (https://sketchfab.com/ssufi05)",
      "license": "CC-BY-4.0 (http://creativecommons.org/licenses/by/4.0/)",
      "source": "https://sketchfab.com/3d-models/mail-logo-36aa864c7d4a496e988de99003e636b1",
      "title": "Mail_Logo"
    },
    "generator": "Sketchfab-15.27.0",
    "version": "2.0"
  },
  "bufferViews": [
    {
      "buffer": 0,
      "byteLength": 3420,
      "name": "floatBufferViews",
      "target": 34963
    },
    {
      "buffer": 0,
      "byteLength": 2520,
      "byteOffset": 3420,
      "byteStride": 8,
      "name": "floatBufferViews",
      "target": 34962
    },
    {
      "buffer": 0,
      "byteLength": 7560,
      "byteOffset": 5940,
      "byteStride": 12,
      "name": "floatBufferViews",
      "target": 34962
    }
  ],
  "buffers": [
    {
      "byteLength": 13500,
      "uri": "scene.bin"
    }
  ],
  "images": [
    {
      "uri": "textures/material_0_baseColor.png"
    }
  ],
  "materials": [
    {
      "doubleSided": true,
      "name": "material_0",
      "pbrMetallicRoughness": {
        "baseColorTexture": {
          "index": 0
        },
        "metallicFactor": 0.433402
      }
    }
  ],
  "meshes": [
    {
      "name": "Object_0",
      "primitives": [
        {
          "attributes": {
            "NORMAL": 1,
            "POSITION": 0,
            "TEXCOORD_0": 2
          },
          "indices": 3,
          "material": 0,
          "mode": 4
        }
      ]
    }
  ],
  "nodes": [
    {
      "children": [
        1
      ],
      "matrix": [
        1.0,
        0.0,
        0.0,
        0.0,
        0.0,
        2.220446049250313e-16,
        -1.0,
        0.0,
        0.0,
        1.0,
        2.220446049250313e-16,
        0.0,
        0.0,
        0.0,
        0.0,
        1.0
      ],
      "name": "Sketchfab_model"
    },
    {
      "children": [
        2
      ],
      "name": "root"
    },
    {
      "children": [
        3
      ],
      "matrix": [
        1.0,
        0.0,
        0.0,
        0.0,
        0.0,
        2.220446049250313e-16,
        1.0,
        0.0,
        0.0,
        -1.0,
        2.220446049250313e-16,
        0.0,
        0.0,
        0.0,
        0.0,
        1.0
      ],
      "name": "GLTF_SceneRootNode"
    },
    {
      "children": [
        4
      ],
      "matrix": [
        1.0,
        0.0,
        0.0,
        0.0,
        0.0,
        3.422854177870249e-08,
        -0.9999999403953552,
        0.0,
        0.0,
        0.9999999403953552,
        3.422854177870249e-08,
        0.0,
        0.0,
        0.0,
        0.0,
        1.0
      ],
      "name": "Sketchfab_model_4"
    },
    {
      "children": [
        5
      ],
      "matrix": [
        0.009999999776482582,
        0.0,
        0.0,
        0.0,
        0.0,
        3.42285422227917e-10,
        0.009999999776482582,
        0.0,
        0.0,
        -0.009999999776482582,
        3.42285422227917e-10,
        0.0,
        0.0,
        0.0,
        0.0,
        1.0
      ],
      "name": "Mail.fbx_3"
    },
    {
      "children": [
        6
      ],
      "name": "RootNode_2"
    },
    {
      "children": [
        7
      ],
      "matrix": [
        1.0,
        0.0,
        0.0,
        0.0,
        0.0,
        1.0,
        0.0,
        0.0,
        0.0,
        0.0,
        1.0,
        0.0,
        -0.0032044558320194483,
        0.9429594874382019,
        -0.012213564477860928,
        1.0
      ],
      "name": "Mail_1"
    },
    {
      "children": [
        8
      ],
      "name": "Mail_Mail_0_0"
    },
    {
      "mesh": 0,
      "name": "Object_8"
    }
  ],
  "samplers": [
    {
      "magFilter": 9729,
      "minFilter": 9987,
      "wrapS": 10497,
      "wrapT": 10497
    }
  ],
  "scene": 0,
  "scenes": [
    {
      "name": "Sketchfab_Scene",
      "nodes": [
        0
      ]
    }
  ],
  "textures": [
    {
      "sampler": 0,
      "source": 0
    }
  ]
}
